<?xml version="1.0" standalone="no"?>
<!DOCTYPE svg PUBLIC "-//W3C//DTD SVG 20010904//EN"
 "http://www.w3.org/TR/2001/REC-SVG-20010904/DTD/svg10.dtd">
<svg version="1.0" xmlns="http://www.w3.org/2000/svg"
 width="512.000000pt" height="512.000000pt" viewBox="0 0 512.000000 512.000000"
 preserveAspectRatio="xMidYMid meet">
<metadata>
Created by potrace 1.11, written by Peter Selinger 2001-2013
</metadata>
<g transform="translate(0.000000,512.000000) scale(0.100000,-0.100000)"
fill="#000000" stroke="none">
<path d="M0 2560 l0 -2560 2560 0 2560 0 0 2560 0 2560 -2560 0 -2560 0 0
-2560z m1307 48 l-3 -1543 -25 -115 c-46 -202 -111 -335 -215 -436 -143 -139
-351 -204 -656 -204 l-118 0 0 170 0 170 95 0 c296 0 431 98 491 357 29 125
34 375 34 1751 l0 1392 200 0 201 0 -4 -1542z m2048 1523 c765 -99 1155 -435
1270 -1092 39 -222 39 -561 -1 -786 -108 -626 -481 -971 -1164 -1077 -183 -29
-355 -36 -841 -36 l-489 0 0 1506 0 1506 568 -5 c345 -3 602 -9 657 -16z"/>
<path d="M2530 2645 l0 -1177 373 5 c318 4 388 8 482 26 495 92 742 347 821
852 25 157 23 468 -5 623 -87 491 -335 733 -841 822 -73 13 -181 18 -462 21
l-368 5 0 -1177z"/>
</g>
</svg>
